<svg xmlns="http://www.w3.org/2000/svg" viewBox="0 19.950000762939453 140.5 35.599998474121094" data-asc="1.095"><g fill="#ffffff"><g fill="#ffffff" transform="translate(0, 0)"><path d="M0 45.05Q0 44.05 0.28 43.27Q0.55 42.50 1.53 41.23Q2.50 39.95 4.50 37.60L16.70 23.35Q17.90 21.95 18.68 21.23Q19.45 20.50 20.20 20.25Q20.95 20 22 20L23.75 20Q24.65 20 25.03 20.48Q25.40 20.95 25.40 22.30Q25.40 23.50 25.30 24.70Q25.20 25.90 25.03 27.50Q24.85 29.10 24.60 31.45L22.10 55.15L18.10 55.15Q17.65 55.15 17.35 54.80Q17.05 54.45 16.90 53.75Q16.75 53.05 16.75 52.10Q16.75 50.75 16.85 49.10Q16.95 47.45 17.10 45.85Q17.25 44.25 17.35 43.05L19.50 22.75L20.95 24.20L3.85 44.70L2.35 42.70L19 42.70Q21.15 42.70 23.05 42.55Q24.95 42.40 26.25 42.25Q27.55 42.10 27.90 42.10Q28.30 42.10 28.50 42.33Q28.70 42.55 28.70 42.95Q28.70 43.70 27.70 44.52Q26.70 45.35 25.23 45.90Q23.75 46.45 22.35 46.45L1.40 46.55Q0.65 46.55 0.32 46.23Q0 45.90 0 45.05ZM33.90 48.10L40 42Q42.85 39.15 44.75 37.15Q46.65 35.15 47.63 33.35Q48.60 31.55 48.60 29.40Q48.60 26.50 47.13 25.22Q45.65 23.95 43.40 23.95Q41.30 23.95 39.75 24.67Q38.20 25.40 37.05 26.10Q36.05 26.70 35.38 27.05Q34.70 27.40 34.15 27.40Q33.75 27.40 33.45 27Q33.15 26.60 33.02 25.95Q32.90 25.30 32.90 24.55Q32.90 23.35 34.15 22.30Q35.40 21.25 37.77 20.60Q40.15 19.95 43.55 19.95Q47.10 19.95 49.70 20.88Q52.30 21.80 53.75 23.67Q55.20 25.55 55.20 28.45Q55.20 31.15 54.23 33.33Q53.25 35.50 51.70 37.35Q50.15 39.20 48.30 40.80Q46.45 42.40 44.65 43.95L35.40 51.95L35.60 51.35L52.70 48.95Q53.65 48.80 54.40 48.70Q55.15 48.60 55.65 48.60Q56.25 48.60 56.25 49.30Q56.25 49.90 56.03 50.80Q55.80 51.70 55.35 52.60Q54.90 53.50 54.28 54.13Q53.65 54.75 52.85 54.75L47 54.75Q45.90 54.75 44.25 54.80Q42.60 54.85 40.77 54.92Q38.95 55 37.25 55.08Q35.55 55.15 34.35 55.20Q33.15 55.25 32.75 55.25Q32.05 55.25 31.70 54.85Q31.35 54.45 31.23 53.88Q31.10 53.30 31.10 52.90Q31.10 51.90 31.60 50.90Q32.10 49.90 33.90 48.10ZM80.30 55.55Q78 55.55 76.75 53.90Q75.50 52.25 75.50 49.50Q75.45 48.70 75.43 47.85Q75.40 47 75.55 44.90L74.35 44.85L74.15 39.15Q74.10 38.35 73.93 37.33Q73.75 36.30 73.50 35.38Q73.25 34.45 73 33.95Q72.65 33.20 72.40 32.92Q72.15 32.65 72.15 32.25Q72.15 31.85 72.70 31.50Q73.25 31.15 74.10 30.85Q74.95 30.55 75.85 30.38Q76.75 30.20 77.45 30.20Q78.20 30.20 78.80 31.07Q79.40 31.95 79.65 34.90L80.90 48.10Q81 49.20 81.35 49.88Q81.70 50.55 82.25 50.55Q83.75 50.55 84.83 48.75Q85.90 46.95 86.45 44.10Q87 41.25 87 38.05Q87 36 86.48 35Q85.95 34 85.95 33.35Q85.95 32.90 86.55 32.35Q87.15 31.80 88 31.30Q88.85 30.80 89.72 30.50Q90.60 30.20 91.10 30.20Q91.80 30.20 92.35 30.63Q92.90 31.05 92.90 32.50Q92.90 37.60 91.72 41.83Q90.55 46.05 88.63 49.13Q86.70 52.20 84.53 53.88Q82.35 55.55 80.30 55.55M67 55.55Q64.40 55.55 63.28 53.60Q62.15 51.65 61.75 47.85L60.85 38.20Q60.75 37.05 60.50 35.88Q60.25 34.70 59.90 34Q59.55 33.30 59.30 33.02Q59.05 32.75 59.05 32.35Q59.05 31.95 59.60 31.57Q60.15 31.20 61 30.88Q61.85 30.55 62.75 30.38Q63.65 30.20 64.35 30.20Q65 30.20 65.55 31.15Q66.10 32.10 66.35 34.90L67.45 46.20Q67.65 48.20 68.05 49.38Q68.45 50.55 69.35 50.55Q70.10 50.55 71.23 49.48Q72.35 48.40 73.25 45.90Q74.15 43.40 74.15 39.15L76.25 43.20Q75.75 47.95 74.25 50.65Q72.75 53.35 70.80 54.45Q68.85 55.55 67 55.55ZM102.30 55.55Q98.45 55.55 96.35 53.13Q94.25 50.70 94.25 46.45Q94.25 42.90 95.25 39.95Q96.25 37 98.05 34.80Q99.85 32.60 102.28 31.40Q104.70 30.20 107.55 30.20Q110.95 30.20 112.75 31.65Q114.55 33.10 114.55 35.80Q114.55 38.55 112.72 40.60Q110.90 42.65 107.47 44.10Q104.05 45.55 99.30 46.55L98.65 43.55Q101.40 43.20 103.70 42.35Q106 41.50 107.40 40.08Q108.80 38.65 108.80 36.70Q108.80 35.35 108.28 34.65Q107.75 33.95 106.40 33.95Q104.35 33.95 102.92 35.45Q101.50 36.95 100.78 39.35Q100.05 41.75 100.05 44.45Q100.05 48.10 101.17 49.33Q102.30 50.55 104.50 50.55Q106.80 50.55 108.53 49.83Q110.25 49.10 111.50 48.30Q111.90 48.05 112.20 47.90Q112.50 47.75 112.70 47.75Q112.95 47.75 113.10 47.95Q113.25 48.15 113.25 48.40Q113.25 49.30 112.45 50.50Q111.65 51.70 110.17 52.85Q108.70 54 106.70 54.77Q104.70 55.55 102.30 55.55ZM126.30 55.55Q125.90 55.55 124.67 55.27Q123.45 55 121.92 54.52Q120.40 54.05 119.10 53.55L122.15 49.50Q123.50 50.40 124.75 50.90Q126 51.40 127.07 51.60Q128.15 51.80 129.05 51.80Q130.75 51.80 132.05 50.42Q133.35 49.05 134.10 46.60Q134.85 44.15 134.85 41.05Q134.85 38.15 134.42 36.65Q134 35.15 133.05 35.15Q132.60 35.15 131.55 35.88Q130.50 36.60 129.05 38.38Q127.60 40.15 125.88 43.20Q124.15 46.25 122.30 50.90L120.80 46.45Q123.60 40.10 126.17 36.60Q128.75 33.10 131.05 31.67Q133.35 30.25 135.30 30.25Q138.10 30.25 139.30 32.60Q140.50 34.95 140.50 38.90Q140.50 43.75 138.78 47.50Q137.05 51.25 133.88 53.40Q130.70 55.55 126.30 55.55M126.30 55.55Q123.25 55.55 121.17 55Q119.10 54.45 118.13 53.50Q117.15 52.55 117.25 51.35L120.75 19.95L124.25 19.95Q125 19.95 125.60 21.05Q126.20 22.15 126.20 23.55Q126.20 25.25 125.97 26.65Q125.75 28.05 125.25 30.25L121.75 45.30L122.75 53.05L126.30 55.55Z"/></g></g></svg>