<svg xmlns="http://www.w3.org/2000/svg" viewBox="0 11.940000534057617 184.05999755859375 37.55000686645508" data-asc="0.98974609375"><g fill="#ffffff"><g fill="#ffffff" transform="translate(0, 0)"><path d="M32.15 49.49L25.76 49.49L25.76 35.18L3.20 35.18Q2.51 35.18 1.93 34.92Q1.34 34.67 0.92 34.24Q0.49 33.81 0.24 33.23Q0 32.64 0 31.98L0 14.48L6.35 14.48L6.35 28.78L25.76 28.78L25.76 14.48L32.15 14.48L32.15 49.49ZM70.78 49.49L38.62 49.49L38.62 37.74Q38.62 36.84 38.83 35.83Q39.04 34.81 39.48 33.81Q39.92 32.81 40.61 31.91Q41.31 31.01 42.30 30.31Q43.29 29.61 44.58 29.20Q45.87 28.78 47.51 28.78L61.82 28.78Q63.11 28.78 63.73 28.14Q64.36 27.49 64.36 26.25L64.36 23.44Q64.36 22.14 63.72 21.48Q63.09 20.83 61.87 20.83L41.48 20.83L41.48 14.48L61.87 14.48Q63.48 14.48 64.77 14.89Q66.06 15.31 67.05 16.00Q68.04 16.70 68.75 17.60Q69.46 18.51 69.91 19.49Q70.36 20.48 70.57 21.50Q70.78 22.51 70.78 23.39L70.78 26.25Q70.78 28.71 69.89 30.41Q68.99 32.10 67.65 33.17Q66.31 34.23 64.76 34.70Q63.21 35.18 61.87 35.18L47.51 35.18Q46.73 35.18 46.26 35.40Q45.80 35.62 45.54 35.99Q45.29 36.35 45.17 36.82Q45.04 37.28 44.97 37.74L44.97 43.14L70.78 43.14L70.78 49.49ZM120.09 23.10Q118.58 26.49 116.82 29.77Q115.06 33.06 113.15 35.99Q111.23 38.92 109.23 41.39Q107.23 43.87 105.26 45.67Q103.30 47.46 101.43 48.47Q99.56 49.49 97.90 49.49Q97.22 49.49 96.63 49.24Q96.04 49.00 95.61 48.57Q95.17 48.14 94.92 47.56Q94.68 46.97 94.68 46.29L94.68 34.45L82.08 48.54Q81.59 49.02 81.02 49.26Q80.44 49.49 79.83 49.49Q79.17 49.49 78.60 49.24Q78.03 49.00 77.59 48.57Q77.15 48.14 76.89 47.56Q76.64 46.97 76.64 46.29L76.64 23.10L82.98 23.10L82.98 38.13L95.63 24.00Q96.31 23.32 97.25 23.13Q98.19 22.95 99.10 23.34Q100 23.71 100.52 24.50Q101.05 25.29 101.05 26.25L101.05 41.33Q103.10 39.36 104.76 37.16Q106.42 34.96 107.85 32.63Q109.28 30.30 110.53 27.89Q111.79 25.49 112.99 23.10L120.09 23.10ZM150.68 31.84Q150.68 33.15 150.22 34.68Q149.76 36.21 148.72 37.51Q147.68 38.82 146.01 39.70Q144.34 40.58 141.94 40.58L130.49 40.58L130.49 34.55L141.94 34.55Q143.24 34.55 143.95 33.75Q144.65 32.96 144.65 31.79Q144.65 30.54 143.86 29.83Q143.07 29.13 141.94 29.13L130.49 29.13Q129.20 29.13 128.49 29.92Q127.78 30.71 127.78 31.88L127.78 40.75Q127.78 42.02 128.58 42.72Q129.37 43.43 130.54 43.43L141.94 43.43L141.94 49.49L130.49 49.49Q129.17 49.49 127.65 49.02Q126.12 48.56 124.82 47.52Q123.51 46.48 122.63 44.81Q121.75 43.14 121.75 40.75L121.75 31.84Q121.75 30.52 122.22 28.99Q122.68 27.47 123.72 26.16Q124.76 24.85 126.43 23.97Q128.10 23.10 130.49 23.10L141.94 23.10Q143.26 23.10 144.79 23.56Q146.31 24.02 147.62 25.06Q148.93 26.10 149.80 27.77Q150.68 29.44 150.68 31.84ZM184.06 40.58Q184.06 41.48 183.85 42.48Q183.64 43.48 183.20 44.47Q182.76 45.46 182.07 46.36Q181.37 47.27 180.38 47.96Q179.39 48.66 178.10 49.07Q176.81 49.49 175.17 49.49L163.72 49.49Q162.82 49.49 161.82 49.28Q160.82 49.07 159.83 48.63Q158.84 48.19 157.93 47.50Q157.03 46.80 156.34 45.81Q155.64 44.82 155.22 43.52Q154.81 42.21 154.81 40.58L154.81 11.94L161.16 11.94L161.16 40.58Q161.16 41.75 161.89 42.44Q162.62 43.14 163.72 43.14L175.17 43.14Q176.37 43.14 177.04 42.43Q177.71 41.72 177.71 40.58L177.71 31.98Q177.71 30.79 177.00 30.11Q176.29 29.44 175.17 29.44L163.72 29.44L163.72 23.10L175.17 23.10Q176.07 23.10 177.08 23.30Q178.08 23.51 179.06 23.95Q180.05 24.39 180.96 25.09Q181.86 25.78 182.54 26.77Q183.23 27.76 183.64 29.05Q184.06 30.35 184.06 31.98L184.06 40.58Z"/></g></g></svg>